<!DOCTYPE svg PUBLIC "-//W3C//DTD SVG 1.1//EN" "http://www.w3.org/Graphics/SVG/1.1/DTD/svg11.dtd">
<!-- Uploaded to: SVG Repo, www.svgrepo.com, Transformed by: SVG Repo Mixer Tools -->
<svg fill="#000000" height="103px" width="103px" version="1.1" id="Layer_1" xmlns="http://www.w3.org/2000/svg" xmlns:xlink="http://www.w3.org/1999/xlink" viewBox="0 0 512 512" xml:space="preserve">
<g id="SVGRepo_bgCarrier" stroke-width="0"/>
<g id="SVGRepo_tracerCarrier" stroke-linecap="round" stroke-linejoin="round"/>
<g id="SVGRepo_iconCarrier"> <g> <g> <g> <path d="M119.467,102.4c4.719,0,8.533-3.823,8.533-8.533V51.2h8.533c4.719,0,8.533-3.823,8.533-8.533 c0-4.71-3.814-8.533-8.533-8.533H128v-25.6C128,3.823,124.186,0,119.467,0s-8.533,3.823-8.533,8.533v85.333 C110.933,98.577,114.748,102.4,119.467,102.4z"/> <path d="M375.467,401.067c4.719,0,8.533-3.823,8.533-8.533V256h25.6c3.541,0,6.707-2.185,7.979-5.487 c1.254-3.302,0.35-7.049-2.287-9.404L286.276,125.67c-22.135-19.789-55.484-19.789-77.619,0L79.642,241.109 c-2.637,2.355-3.541,6.101-2.287,9.404c1.271,3.302,4.437,5.487,7.979,5.487h25.6v136.533c0,4.71,3.814,8.533,8.533,8.533 H375.467z"/> <path d="M503.467,384h-25.6v-8.533c0-4.71-3.814-8.533-8.533-8.533s-8.533,3.823-8.533,8.533V384h-42.667 c-4.719,0-8.533,3.823-8.533,8.533c0,4.71,3.814,8.533,8.533,8.533h85.333c4.719,0,8.533-3.823,8.533-8.533 C512,387.823,508.186,384,503.467,384z"/> <path d="M93.867,460.8h-8.533c-4.719,0-8.533,3.823-8.533,8.533s3.814,8.533,8.533,8.533h8.533c4.719,0,8.533-3.823,8.533-8.533 S98.586,460.8,93.867,460.8z"/> <path d="M136.533,460.8H128c-4.719,0-8.533,3.823-8.533,8.533s3.814,8.533,8.533,8.533h8.533c4.719,0,8.533-3.823,8.533-8.533 S141.252,460.8,136.533,460.8z"/> <path d="M179.2,460.8h-8.533c-4.719,0-8.533,3.823-8.533,8.533s3.814,8.533,8.533,8.533h8.533c4.719,0,8.533-3.823,8.533-8.533 S183.919,460.8,179.2,460.8z"/> <path d="M221.867,460.8h-8.533c-4.719,0-8.533,3.823-8.533,8.533s3.814,8.533,8.533,8.533h8.533c4.719,0,8.533-3.823,8.533-8.533 S226.586,460.8,221.867,460.8z"/> <path d="M264.533,460.8H256c-4.719,0-8.533,3.823-8.533,8.533s3.814,8.533,8.533,8.533h8.533c4.719,0,8.533-3.823,8.533-8.533 S269.252,460.8,264.533,460.8z"/> <path d="M307.2,460.8h-8.533c-4.719,0-8.533,3.823-8.533,8.533s3.814,8.533,8.533,8.533h8.533c4.719,0,8.533-3.823,8.533-8.533 S311.919,460.8,307.2,460.8z"/> <path d="M349.867,460.8h-8.533c-4.719,0-8.533,3.823-8.533,8.533s3.814,8.533,8.533,8.533h8.533c4.719,0,8.533-3.823,8.533-8.533 S354.586,460.8,349.867,460.8z"/> <path d="M392.533,460.8H384c-4.719,0-8.533,3.823-8.533,8.533s3.814,8.533,8.533,8.533h8.533c4.719,0,8.533-3.823,8.533-8.533 S397.252,460.8,392.533,460.8z"/> <path d="M435.2,460.8h-8.533c-4.719,0-8.533,3.823-8.533,8.533s3.814,8.533,8.533,8.533h8.533c4.719,0,8.533-3.823,8.533-8.533 S439.919,460.8,435.2,460.8z"/> <path d="M503.467,460.8h-34.133c-4.719,0-8.533,3.823-8.533,8.533v34.133c0,4.71,3.814,8.533,8.533,8.533 s8.533-3.823,8.533-8.533v-25.6h25.6c4.719,0,8.533-3.823,8.533-8.533S508.186,460.8,503.467,460.8z"/> <path d="M426.667,51.2h8.533c4.719,0,8.533-3.823,8.533-8.533c0-4.71-3.814-8.533-8.533-8.533h-8.533 c-4.719,0-8.533,3.823-8.533,8.533C418.133,47.377,421.948,51.2,426.667,51.2z"/> <path d="M384,51.2h8.533c4.719,0,8.533-3.823,8.533-8.533c0-4.71-3.814-8.533-8.533-8.533H384c-4.719,0-8.533,3.823-8.533,8.533 C375.467,47.377,379.281,51.2,384,51.2z"/> <path d="M341.333,51.2h8.533c4.719,0,8.533-3.823,8.533-8.533c0-4.71-3.814-8.533-8.533-8.533h-8.533 c-4.719,0-8.533,3.823-8.533,8.533C332.8,47.377,336.614,51.2,341.333,51.2z"/> <path d="M298.667,51.2h8.533c4.719,0,8.533-3.823,8.533-8.533c0-4.71-3.814-8.533-8.533-8.533h-8.533 c-4.719,0-8.533,3.823-8.533,8.533C290.133,47.377,293.948,51.2,298.667,51.2z"/> <path d="M256,51.2h8.533c4.719,0,8.533-3.823,8.533-8.533c0-4.71-3.814-8.533-8.533-8.533H256c-4.719,0-8.533,3.823-8.533,8.533 C247.467,47.377,251.281,51.2,256,51.2z"/> <path d="M213.333,51.2h8.533c4.719,0,8.533-3.823,8.533-8.533c0-4.71-3.814-8.533-8.533-8.533h-8.533 c-4.719,0-8.533,3.823-8.533,8.533C204.8,47.377,208.614,51.2,213.333,51.2z"/> <path d="M170.667,51.2h8.533c4.719,0,8.533-3.823,8.533-8.533c0-4.71-3.814-8.533-8.533-8.533h-8.533 c-4.719,0-8.533,3.823-8.533,8.533C162.133,47.377,165.948,51.2,170.667,51.2z"/> <path d="M85.333,51.2c4.719,0,8.533-3.823,8.533-8.533c0-4.71-3.814-8.533-8.533-8.533H76.8c-4.719,0-8.533,3.823-8.533,8.533 c0,4.71,3.814,8.533,8.533,8.533H85.333z"/> <path d="M469.333,51.2h34.133c4.719,0,8.533-3.823,8.533-8.533c0-4.71-3.814-8.533-8.533-8.533h-25.6v-25.6 c0-4.71-3.814-8.533-8.533-8.533S460.8,3.823,460.8,8.533v34.133C460.8,47.377,464.614,51.2,469.333,51.2z"/> <path d="M42.667,0c-4.719,0-8.533,3.823-8.533,8.533v25.6h-25.6C3.814,34.133,0,37.956,0,42.667c0,4.71,3.814,8.533,8.533,8.533 h34.133c4.719,0,8.533-3.823,8.533-8.533V8.533C51.2,3.823,47.386,0,42.667,0z"/> <path d="M42.667,76.8c-4.719,0-8.533,3.823-8.533,8.533v8.533c0,4.71,3.814,8.533,8.533,8.533s8.533-3.823,8.533-8.533v-8.533 C51.2,80.623,47.386,76.8,42.667,76.8z"/> <path d="M42.667,119.467c-4.719,0-8.533,3.823-8.533,8.533v8.533c0,4.71,3.814,8.533,8.533,8.533s8.533-3.823,8.533-8.533V128 C51.2,123.29,47.386,119.467,42.667,119.467z"/> <path d="M42.667,162.133c-4.719,0-8.533,3.823-8.533,8.533v8.533c0,4.71,3.814,8.533,8.533,8.533S51.2,183.91,51.2,179.2v-8.533 C51.2,165.956,47.386,162.133,42.667,162.133z"/> <path d="M42.667,204.8c-4.719,0-8.533,3.823-8.533,8.533v8.533c0,4.71,3.814,8.533,8.533,8.533s8.533-3.823,8.533-8.533v-8.533 C51.2,208.623,47.386,204.8,42.667,204.8z"/> <path d="M42.667,247.467c-4.719,0-8.533,3.823-8.533,8.533v8.533c0,4.71,3.814,8.533,8.533,8.533s8.533-3.823,8.533-8.533V256 C51.2,251.29,47.386,247.467,42.667,247.467z"/> <path d="M42.667,290.133c-4.719,0-8.533,3.823-8.533,8.533v8.533c0,4.71,3.814,8.533,8.533,8.533S51.2,311.91,51.2,307.2v-8.533 C51.2,293.956,47.386,290.133,42.667,290.133z"/> <path d="M42.667,332.8c-4.719,0-8.533,3.823-8.533,8.533v8.533c0,4.71,3.814,8.533,8.533,8.533s8.533-3.823,8.533-8.533v-8.533 C51.2,336.623,47.386,332.8,42.667,332.8z"/> <path d="M42.667,375.467c-4.719,0-8.533,3.823-8.533,8.533v8.533c0,4.71,3.814,8.533,8.533,8.533s8.533-3.823,8.533-8.533V384 C51.2,379.29,47.386,375.467,42.667,375.467z"/> <path d="M42.667,418.133c-4.719,0-8.533,3.823-8.533,8.533v8.533c0,4.71,3.814,8.533,8.533,8.533S51.2,439.91,51.2,435.2v-8.533 C51.2,421.956,47.386,418.133,42.667,418.133z"/> <path d="M469.333,93.867c4.719,0,8.533-3.823,8.533-8.533V76.8c0-4.71-3.814-8.533-8.533-8.533S460.8,72.09,460.8,76.8v8.533 C460.8,90.044,464.614,93.867,469.333,93.867z"/> <path d="M469.333,136.533c4.719,0,8.533-3.823,8.533-8.533v-8.533c0-4.71-3.814-8.533-8.533-8.533s-8.533,3.823-8.533,8.533V128 C460.8,132.71,464.614,136.533,469.333,136.533z"/> <path d="M469.333,179.2c4.719,0,8.533-3.823,8.533-8.533v-8.533c0-4.71-3.814-8.533-8.533-8.533s-8.533,3.823-8.533,8.533v8.533 C460.8,175.377,464.614,179.2,469.333,179.2z"/> <path d="M469.333,221.867c4.719,0,8.533-3.823,8.533-8.533V204.8c0-4.71-3.814-8.533-8.533-8.533s-8.533,3.823-8.533,8.533v8.533 C460.8,218.044,464.614,221.867,469.333,221.867z"/> <path d="M469.333,264.533c4.719,0,8.533-3.823,8.533-8.533v-8.533c0-4.71-3.814-8.533-8.533-8.533s-8.533,3.823-8.533,8.533V256 C460.8,260.71,464.614,264.533,469.333,264.533z"/> <path d="M469.333,307.2c4.719,0,8.533-3.823,8.533-8.533v-8.533c0-4.71-3.814-8.533-8.533-8.533s-8.533,3.823-8.533,8.533v8.533 C460.8,303.377,464.614,307.2,469.333,307.2z"/> <path d="M469.333,349.867c4.719,0,8.533-3.823,8.533-8.533V332.8c0-4.71-3.814-8.533-8.533-8.533s-8.533,3.823-8.533,8.533v8.533 C460.8,346.044,464.614,349.867,469.333,349.867z"/> <path d="M469.333,443.733c4.719,0,8.533-3.823,8.533-8.533v-8.533c0-4.71-3.814-8.533-8.533-8.533s-8.533,3.823-8.533,8.533 v8.533C460.8,439.91,464.614,443.733,469.333,443.733z"/> <path d="M42.667,460.8H8.533C3.814,460.8,0,464.623,0,469.333s3.814,8.533,8.533,8.533h25.6v25.6c0,4.71,3.814,8.533,8.533,8.533 s8.533-3.823,8.533-8.533v-34.133C51.2,464.623,47.386,460.8,42.667,460.8z"/> </g> </g> </g> </g>
</svg>